<?xml version="1.0" encoding="utf-8"?>
<!-- Generator: Adobe Illustrator 19.2.1, SVG Export Plug-In . SVG Version: 6.00 Build 0)  -->
<!DOCTYPE svg PUBLIC "-//W3C//DTD SVG 1.1//EN" "http://www.w3.org/Graphics/SVG/1.1/DTD/svg11.dtd">
<svg version="1.1" id="レイヤー_1" xmlns="http://www.w3.org/2000/svg" xmlns:xlink="http://www.w3.org/1999/xlink" x="0px"
	 y="0px" viewBox="0 0 184.3 374.7" style="enable-background:new 0 0 184.3 374.7;" xml:space="preserve">
<style type="text/css">
	.st0{fill:#1E1E1E;}
	.st1{fill:#0064B4;}
	.st2{fill:#FFC800;}
	.st3{fill:#7DC8DC;}
	.st4{fill:#E6003C;}
</style>
<g>
	<g>
		<rect x="66.2" y="220.1" class="st0" width="17" height="4.1"/>
		<rect x="63.3" y="229.1" class="st0" width="23" height="4.1"/>
		<path class="st0" d="M83.2,279.1V256h-17v23.1h4.4V275h8.2v4.1H83.2z M70.6,270.9V260h8.2v10.9H70.6z"/>
		<rect x="98.6" y="292.4" class="st0" width="33.4" height="4.3"/>
		<polygon class="st0" points="167.3,275 167.3,246.2 182.1,246.2 182.1,242.1 167.3,242.1 167.3,218 162.8,218 162.8,242.1 
			148,242.1 148,246.2 162.8,246.2 162.8,275 145.8,275 145.8,279.1 184.3,279.1 184.3,275 		"/>
		<rect x="111.8" y="220.1" class="st0" width="4.4" height="13"/>
		<rect x="171.4" y="292.4" class="st0" width="4.3" height="8.5"/>
		<rect x="180" y="292.4" class="st0" width="4.3" height="8.5"/>
		<polygon class="st0" points="111.6,279.1 116.6,279.1 105.5,262 105.5,247 101,247 101,262 89.9,279.1 95,279.1 103.3,266.3 		"/>
		<rect x="111.8" y="251" class="st0" width="4.4" height="12.8"/>
		<rect x="90.3" y="251" class="st0" width="4.4" height="12.8"/>
		<polygon class="st0" points="103.3,234.3 111.6,247 116.6,247 105.5,229.9 105.5,218 101,218 101,229.9 89.9,247 95,247 		"/>
		<rect x="90.3" y="220.1" class="st0" width="4.4" height="13"/>
		<polygon class="st0" points="95.7,310.6 129.3,310.6 109.6,346 115,346 134.7,310.6 134.7,306.3 95.7,306.3 		"/>
		<path class="st0" d="M87.4,321.8v-29.3H53V346h4.6v-24.2h16.4L87.4,346h5.3l-13.4-24.2H87.4z M57.5,317.5v-20.8h25.3v20.8H57.5z"
			/>
		<polygon class="st0" points="23.8,339.5 5,292.5 0,292.5 21.4,346 26.3,346 47.7,292.5 42.6,292.5 		"/>
		<polygon class="st0" points="180,306.3 162.5,306.3 162.5,292.5 158,292.5 158,306.3 140.5,306.3 140.5,310.6 158,310.6 158,346 
			162.5,346 162.5,310.6 180,310.6 		"/>
		<rect x="66.2" y="247" class="st0" width="17" height="4.1"/>
		<polygon class="st0" points="134.3,279.1 138.7,279.1 138.7,250.2 148,261.4 148,255.4 138.8,244.3 148,233.2 148,229.1 
			138.7,229.1 138.7,218 134.3,218 134.3,229.1 125.1,229.1 125.1,233.2 143,233.2 124.6,255.4 124.6,261.4 134.3,249.7 		"/>
		<rect x="3" y="238" class="st0" width="17" height="4.1"/>
		<rect x="3" y="220.1" class="st0" width="17" height="4.1"/>
		<rect x="3" y="247" class="st0" width="17" height="4.1"/>
		<rect x="66.2" y="238" class="st0" width="17" height="4.1"/>
		<path class="st0" d="M20,279.1V256H3v23.1h4.4V275h8.2v4.1H20z M7.4,270.9V260h8.2v10.9H7.4z"/>
		<rect y="229.1" class="st0" width="23" height="4.1"/>
		<polygon class="st0" points="169.3,321.8 178.9,339 184.3,339 174.7,321.8 		"/>
		<polygon class="st0" points="136.2,339 141.5,339 151.2,321.8 145.8,321.8 		"/>
		<path class="st0" d="M56.9,263.9h-4.1v-16.8H42.1V242h14.8v-3.9h-8.5v-4.1h4.4v-3.9h-4.4v-4.1h4.4v-3.9h-4.4V218h-4.2v4.2h-8.5
			V218h-4.2v4.2h-4.4v3.9h4.4v4.1h-4.4v3.9h4.4v4.1H23v3.9h14.8v5.1H27.1v16.8H23v3.9h4.1v11.3h4.2v-11.3h17.3v7.4h-6.4v3.9h10.6
			v-11.3h4.1V263.9z M37.9,263.9h-6.6v-4.5h6.6V263.9z M37.9,255.5h-6.6V251h6.6V255.5z M35.7,226.1h8.5v4.1h-8.5V226.1z
			 M35.7,238.1v-4.1h8.5v4.1H35.7z M48.7,263.9h-6.6v-4.5h6.6V263.9z M48.7,255.5h-6.6V251h6.6V255.5z"/>
	</g>
	<g>
		<path class="st0" d="M20,362.1c-3.5,0-6.3,2.8-6.3,6.3c0,3.5,2.8,6.3,6.3,6.3s6.3-2.8,6.3-6.3C26.3,364.9,23.5,362.1,20,362.1z
			 M20,373.1c-2.6,0-4.7-2.1-4.7-4.7c0-2.6,2.1-4.7,4.7-4.7s4.7,2.1,4.7,4.7C24.8,371,22.7,373.1,20,373.1z"/>
		<path class="st0" d="M52.5,374.4H54l-5.2-12.1h-1.4l-5.2,12.1h1.6l1.3-3.1h6.1L52.5,374.4z M45.7,369.9l2.4-5.6l2.4,5.6H45.7z"/>
		<path class="st0" d="M108.2,374.4h1.5l-5.2-12.1h-1.4l-5.2,12.1h1.6l1.3-3.1h6.1L108.2,374.4z M101.4,369.9l2.4-5.6l2.4,5.6H101.4
			z"/>
		<path class="st0" d="M169.4,374.4h1.5l-5.2-12.1h-1.4l-5.2,12.1h1.6l1.3-3.1h6.1L169.4,374.4z M162.5,369.9l2.4-5.6l2.4,5.6H162.5
			z"/>
		<polygon class="st0" points="127.7,362.4 123.3,372.5 118.9,362.4 117.4,362.4 122.6,374.4 124,374.4 129.2,362.4 		"/>
		<polygon class="st0" points="151.7,373 151.7,362.4 150.2,362.4 150.2,373 150.2,374.4 151.7,374.4 156.2,374.4 156.2,373 		"/>
		<path class="st0" d="M140.6,365.7c0-1.9-1.5-3.4-3.4-3.4h-3.6h-1.2h-0.3v12.1h1.5v-5.4h3.1l2.3,5.4h1.5l-2.4-5.5
			C139.6,368.5,140.6,367.2,140.6,365.7z M133.6,363.7h3.6c1.1,0,2,0.9,2,2s-0.9,2-2,2v0h-3.6V363.7z"/>
		<polygon class="st0" points="92.7,362.4 92.7,367.6 86.3,367.6 86.3,362.4 84.8,362.4 84.8,374.4 86.3,374.4 86.3,369.1 
			92.7,369.1 92.7,374.4 94.1,374.4 94.1,362.4 		"/>
		<polygon class="st0" points="65,362.4 65,371.9 59.4,362.4 59.3,362.4 57.8,362.4 57.8,374.4 59.3,374.4 59.3,364.9 64.9,374.4 
			65,374.4 66.5,374.4 66.5,362.4 		"/>
		<path class="st0" d="M33.4,362.4h-1.6h-0.7h-0.8v12.1h1.5v0h1.6c3.3,0,6-2.7,6-6S36.8,362.4,33.4,362.4z M33.4,373h-1.6v-9.1h1.6
			c2.5,0,4.5,2,4.5,4.5S35.9,373,33.4,373z"/>
		<polygon class="st0" points="11.7,362.4 9.7,362.4 4.7,367.3 4.7,362.4 3.2,362.4 3.2,374.4 4.7,374.4 4.7,369.5 9.7,374.4 
			11.7,374.4 5.6,368.4 		"/>
		<path class="st0" d="M180.4,368.2c0.7-0.6,1.1-1.5,1.1-2.5c0-1.9-1.5-3.4-3.4-3.4h-3h-1.4h-0.1v12.1h0.6v0h4.5
			c1.9,0,3.4-1.5,3.4-3.4C182.1,369.8,181.4,368.7,180.4,368.2z M178.1,363.7c1.1,0,2,0.9,2,2c0,1.1-0.9,2-2,2h-3v-4.1H178.1z
			 M178.8,373.1L178.8,373.1h-3.6v-4.1h3.6v0c1.1,0,2,0.9,2,2C180.8,372.2,179.9,373.1,178.8,373.1z"/>
		<path class="st0" d="M77.8,368.4c-1.1-0.4-2.1-0.8-2.8-1c-1.4-0.5-1.9-1.3-1.9-2c0-1.4,1.2-1.9,2.6-1.9c1.2,0,2.3,0.5,2.4,2h1.7
			c0-2.3-1.9-3.4-4-3.4c-2.5,0-4.2,1.1-4.2,3.3c0,1.4,0.8,2.5,2.4,3.1c1.1,0.4,2,0.7,2.7,1c1.4,0.5,1.8,1.2,1.8,1.9
			c0,1.4-1.3,1.9-2.7,1.9c-1.2,0-2.6-0.5-2.6-2h-1.8c0,2.3,2.3,3.4,4.4,3.4c2.5,0,4.3-1.1,4.3-3.3C80,370,79.1,368.9,77.8,368.4z"/>
	</g>
	<polygon class="st1" points="2.8,19.3 62.2,58.9 62.2,138 92.1,118.1 92.1,197.9 2.8,138.4 	"/>
	<polygon class="st2" points="136.8,0 166.4,19.8 166.4,59.3 136.8,39.5 	"/>
	<polygon class="st3" points="181.5,59 136.8,88.7 136.8,148.3 181.5,118.5 	"/>
	<polygon class="st4" points="121.5,19.4 121.5,98.5 92.1,118.1 92.1,78.8 62.2,58.9 	"/>
</g>
</svg>
